<svg width="44" height="40" viewBox="0 0 44 40" fill="none" xmlns="http://www.w3.org/2000/svg">
<path d="M0.156122 11.5575C1.01071 15.5642 4.60849 18.5807 8.90474 18.5807C13.7877 18.5807 17.7603 14.6081 17.7603 9.72518C17.7603 8.71197 17.5915 7.7226 17.2682 6.78913L0.156122 11.5575ZM44 11.0972C44 10.3846 43.4223 9.80689 42.7097 9.80689H23.2697C22.5571 9.80689 21.9794 10.3846 21.9794 11.0972V15.312H44V11.0972ZM19.2269 22.1074C19.2269 22.82 19.8046 23.3977 20.5171 23.3977H23.7456C22.37 25.2387 20.9198 26.2263 19.4183 26.3381C16.9935 26.5195 14.9137 24.3817 14.3193 23.7044C14.0461 22.546 13.6908 21.4084 13.256 20.3004C11.914 20.8546 10.4445 21.1612 8.90474 21.1612C7.4057 21.1612 5.97273 20.8754 4.65786 20.3561C3.70806 22.6243 2.79747 25.8067 2.79747 29.677V37.9347C2.79747 38.6473 3.37517 39.225 4.08774 39.225H13.7217C14.4343 39.225 15.012 38.6473 15.012 37.9347V29.677C15.012 28.9614 14.9827 28.2698 14.9298 27.6027C16.0738 28.3294 17.5081 28.9295 19.1257 28.9295C19.2795 28.9295 19.4351 28.9241 19.5921 28.9128C22.3072 28.7182 24.7458 26.8633 26.8482 23.3977H39.7851C40.4977 23.3977 41.0754 22.82 41.0754 22.1074V17.8926H19.2269V22.1074ZM20.4697 1.89093C20.2784 1.2046 19.5674 0.803066 18.8805 0.994456L13.9369 2.37212C12.466 1.33423 10.7262 0.775024 8.90474 0.775024C6.5395 0.775024 4.3002 1.71322 2.5992 3.41672C1.09303 4.92521 0.187003 6.85622 0 8.9222L3.06559 8.06796C3.12348 8.06004 3.18145 8.04817 3.23926 8.03209L19.5732 3.4802C20.2597 3.28898 20.661 2.57744 20.4697 1.89093Z" fill="#496192"/>
</svg>
