<svg width="8" height="15" viewBox="0 0 8 15" fill="none" xmlns="http://www.w3.org/2000/svg">
<path d="M2.41284 7.5L6.74409 12.45C6.82767 12.5422 6.89433 12.6526 6.94018 12.7746C6.98604 12.8966 7.01018 13.0278 7.01119 13.1606C7.0122 13.2934 6.99006 13.4251 6.94606 13.548C6.90207 13.6708 6.8371 13.7825 6.75494 13.8764C6.67278 13.9703 6.57509 14.0445 6.46755 14.0948C6.36002 14.1451 6.2448 14.1704 6.12862 14.1692C6.01244 14.1681 5.89762 14.1405 5.79087 14.0881C5.68411 14.0357 5.58756 13.9595 5.50684 13.864L0.556969 8.207C0.392932 8.01947 0.300781 7.76516 0.300781 7.5C0.300781 7.23483 0.392932 6.98053 0.556969 6.793L5.50684 1.136C5.67187 0.953839 5.8929 0.853045 6.12232 0.855323C6.35174 0.857602 6.5712 0.962771 6.73344 1.14818C6.89567 1.33359 6.98769 1.5844 6.98968 1.8466C6.99168 2.10879 6.90348 2.3614 6.74409 2.55L2.41284 7.5Z" fill="#E8EDFF"/>
</svg>
